HIERARCHY
ROOT Hips
{
	OFFSET 0.000000 0.000000 0.000000 
	CHANNELS 6 Xposition Yposition Zposition Zrotation Yrotation Xrotation
	JOINT LeftUpLeg
	{
		OFFSET 1.363060 -1.794630 0.839290 
		CHANNELS 3 Zrotation Yrotation Xrotation
		JOINT LeftLeg
		{
			OFFSET 2.448110 -6.726130 0.000000 
			CHANNELS 3 Zrotation Yrotation Xrotation
			JOINT LeftFoot
			{
				OFFSET 2.562200 -7.039590 0.000000 
				CHANNELS 3 Zrotation Yrotation Xrotation
				JOINT LeftToeBase
				{
					OFFSET 0.157640 -0.433110 2.322550 
					CHANNELS 3 Zrotation Yrotation Xrotation
					End Site
					{
						OFFSET 0.000000 0.000000 0.000000 
					}
				}
			}
		}
	}
	JOINT RightUpLeg
	{
		OFFSET -1.305520 -1.794630 0.839290 
		CHANNELS 3 Zrotation Yrotation Xrotation
		JOINT RightLeg
		{
			OFFSET -2.542530 -6.985550 0.000000 
			CHANNELS 3 Zrotation Yrotation Xrotation
			JOINT RightFoot
			{
				OFFSET -2.568260 -7.056230 0.000000 
				CHANNELS 3 Zrotation Yrotation Xrotation
				JOINT RightToeBase
				{
					OFFSET -0.164730 -0.452590 2.363150 
					CHANNELS 3 Zrotation Yrotation Xrotation
					End Site
					{
						OFFSET 0.000000 0.000000 0.000000 
					}
				}
			}
		}
	}
	JOINT Spine
	{
		OFFSET 0.028270 2.035590 -0.193380 
		CHANNELS 3 Zrotation Yrotation Xrotation
		JOINT Spine1
		{
			OFFSET 0.056720 2.048850 -0.042750 
			CHANNELS 3 Zrotation Yrotation Xrotation
			JOINT Neck1
			{
				OFFSET -0.054170 1.746240 0.172020 
				CHANNELS 3 Zrotation Yrotation Xrotation
				JOINT Head
				{
					OFFSET 0.104070 1.761360 -0.123970 
					CHANNELS 3 Zrotation Yrotation Xrotation
					End Site
					{
						OFFSET 0.000000 0.000000 0.000000 
					}
				}
			}
			JOINT LeftArm
			{
				OFFSET 3.362410 1.200890 -0.311210 
				CHANNELS 3 Zrotation Yrotation Xrotation
				JOINT LeftForeArm
				{
					OFFSET 4.983000 -0.000000 -0.000000 
					CHANNELS 3 Zrotation Yrotation Xrotation
					JOINT LeftHand
					{
						OFFSET 3.483560 -0.000000 -0.000000 
						CHANNELS 3 Zrotation Yrotation Xrotation
						JOINT LeftHandIndex1
						{
							OFFSET 0.715260 -0.000000 -0.000000 
							CHANNELS 3 Zrotation Yrotation Xrotation
							End Site
							{
								OFFSET 0.000000 0.000000 0.000000 
							}
						}
					}
				}
			}
			JOINT RightArm
			{
				OFFSET -3.136600 1.374050 -0.404650 
				CHANNELS 3 Zrotation Yrotation Xrotation
				JOINT RightForeArm
				{
					OFFSET -5.241900 -0.000000 -0.000000 
					CHANNELS 3 Zrotation Yrotation Xrotation
					JOINT RightHand
					{
						OFFSET -3.444170 -0.000000 -0.000000 
						CHANNELS 3 Zrotation Yrotation Xrotation
						JOINT RightHandIndex1
						{
							OFFSET -0.622530 -0.000000 -0.000000 
							CHANNELS 3 Zrotation Yrotation Xrotation
							End Site
							{
								OFFSET 0.000000 0.000000 0.000000 
							}
						}
					}
				}
			}
		}
	}
}
MOTION
Frames: 10
Frame Time: 0.041667
28.114792 17.607453 -1.690114 6.270349 -81.535599 -0.276854 -21.403780 -7.584657 -12.970496 1.705081 11.064448 32.256199 1.174115 1.887762 1.927036 2.236400 -9.342000 -26.871200 28.758054 4.223993 -5.023544 -1.214374 -8.015432 25.276644 1.124735 -8.916420 -15.568688 -0.626100 5.063500 -14.089700 0.426879 2.294417 -3.887919 2.845637 1.610107 -5.229526 17.200144 -9.605415 5.681390 9.884600 -4.811700 3.308200 -99.463402 2.591901 -22.928106 30.118508 -38.225031 -11.753384 -2.203947 3.722476 -25.431771 -7.125000 0.000000 0.000000 94.427281 -2.402155 -13.000890 -11.905522 25.680278 -3.746554 1.265310 3.166550 11.270949 7.125000 0.000000 0.000000 
28.115234 17.608007 -1.685467 6.121498 -81.543679 -0.085106 -21.400857 -7.749359 -12.972039 1.707805 11.078523 32.282353 1.105315 2.047028 1.831763 2.202800 -9.276400 -26.663700 28.755617 4.157958 -5.103644 -1.216284 -8.015981 25.270062 1.118097 -8.873470 -15.499801 -0.622800 5.050300 -14.052100 0.403874 2.338156 -3.901199 2.703226 1.619566 -5.267640 17.170984 -9.605941 5.808256 9.871200 -4.810200 3.394500 -99.490659 2.766622 -21.839096 29.667313 -38.005860 -11.554042 -2.559812 3.578049 -23.821450 -7.125000 0.000000 0.000000 94.611124 -2.486410 -12.780827 -12.010234 25.851153 -3.760064 1.281237 3.155450 11.523653 7.125000 0.000000 0.000000 
28.115677 17.608007 -1.677612 5.913163 -81.592440 0.196533 -21.390137 -7.804896 -13.048568 1.710298 11.091872 32.304901 1.061488 2.150106 1.775182 2.202500 -9.275700 -26.661700 28.754691 4.129969 -5.225273 -1.218698 -8.020423 25.264827 1.104667 -8.803083 -15.418668 -0.619300 5.036300 -14.012300 0.382530 2.369505 -3.911867 2.577304 1.620278 -5.242963 17.293025 -9.472792 6.022044 9.996900 -4.737600 3.563500 -99.534635 2.855119 -20.910094 29.130697 -37.702462 -11.324552 -2.927545 3.408252 -22.046996 -7.125000 0.000000 0.000000 94.696672 -2.456276 -12.651233 -12.066480 25.961032 -3.780433 1.307454 3.162007 11.868213 7.125000 0.000000 0.000000 
28.117226 17.608449 -1.671526 5.728384 -81.629329 0.435704 -21.372976 -7.853850 -13.101799 1.711752 11.099574 32.318215 1.042953 2.194315 1.758013 2.206800 -9.284200 -26.688600 28.767200 4.160976 -5.297920 -1.215447 -8.018850 25.244492 1.100849 -8.782439 -15.392138 -0.618900 5.034600 -14.007200 0.365636 2.348116 -3.928412 2.428015 1.593290 -5.261443 17.316971 -9.260235 6.201506 10.053500 -4.628500 3.663500 -99.581717 2.956819 -20.223638 28.673716 -37.433532 -11.149280 -3.308668 3.209849 -20.480638 -7.125000 0.000000 0.000000 94.798322 -2.425655 -12.471265 -12.166256 26.119131 -3.810576 1.331640 3.166657 12.151967 7.125000 0.000000 0.000000 
28.115013 17.607785 -1.674735 5.738980 -81.632683 0.364075 -21.357445 -7.844831 -13.021886 1.717683 11.097686 32.334263 1.064381 2.143289 1.760332 2.202600 -9.275800 -26.662100 28.812758 4.255461 -5.153830 -1.201809 -8.002504 25.208159 1.132903 -8.925475 -15.494092 -0.609100 4.995400 -13.895400 0.360620 2.288198 -3.937907 2.361534 1.557110 -5.324601 17.258708 -9.038923 6.303285 10.031100 -4.519400 3.672300 -99.641430 3.109168 -19.489473 28.284729 -37.216310 -11.006444 -3.687850 2.994465 -18.857260 -7.125000 0.000000 0.000000 94.904496 -2.416487 -12.161275 -12.284771 26.286657 -3.823351 1.346987 3.148168 12.297179 7.125000 0.000000 0.000000 
28.107268 17.606236 -1.682812 5.577075 -81.575317 0.433384 -21.282991 -7.698200 -12.953293 1.726588 11.089287 32.348826 1.149264 1.947385 1.824394 2.207800 -9.286100 -26.694400 28.922000 4.332237 -4.919487 -1.180710 -7.978090 25.156350 1.181730 -9.144978 -15.658130 -0.574300 4.853100 -13.490100 0.369999 2.180613 -3.941047 2.356735 1.501444 -5.340921 17.237655 -8.802061 6.422202 10.034600 -4.404100 3.687500 -99.712779 3.205208 -18.834485 27.809282 -36.922885 -10.936875 -4.495549 2.450348 -16.893464 -7.125000 0.000000 0.000000 94.928346 -2.361096 -11.850183 -12.294640 26.340871 -3.813754 1.385315 3.135793 12.478477 7.125000 0.000000 0.000000 
28.102068 17.607121 -1.685135 5.261530 -81.521596 0.746137 -21.190076 -7.529500 -13.018127 1.730104 11.081971 32.346495 1.242232 1.735295 1.945241 2.224300 -9.318500 -26.796700 29.014148 4.355001 -4.842663 -1.164519 -7.958647 25.100694 1.209763 -9.261198 -15.716606 -0.562700 4.804600 -13.352200 0.369540 2.084413 -3.960872 2.286731 1.442316 -5.404393 17.187080 -8.544474 6.547235 10.023200 -4.276500 3.704600 -99.899587 3.411731 -17.752049 27.335247 -36.585762 -10.497367 -4.265211 2.613158 -14.039420 -7.125000 0.000000 0.000000 94.909182 -2.301747 -11.578140 -12.231159 26.336629 -3.806367 1.423821 3.145043 12.615284 7.125000 0.000000 0.000000 
28.099413 17.609445 -1.682369 5.260986 -81.504727 0.780153 -21.180259 -7.408728 -13.107486 1.729827 11.077814 32.339042 1.308531 1.583313 2.022935 2.228000 -9.325700 -26.819400 29.004667 4.326201 -4.852438 -1.155473 -7.937913 25.040662 1.220941 -9.291794 -15.680275 -0.579200 4.873500 -13.548200 0.356018 2.040321 -3.994866 2.175356 1.408020 -5.512950 17.046726 -8.253040 6.752670 9.947100 -4.126600 3.769900 -100.048039 3.629367 -16.771261 26.927608 -36.302799 -10.135265 -4.021725 2.785378 -11.593969 -7.125000 0.000000 0.000000 94.915740 -2.348127 -11.196065 -12.284541 26.461484 -3.827901 1.401544 3.149255 12.442854 7.125000 0.000000 0.000000 
28.095873 17.610994 -1.678607 5.234176 -81.464370 0.830661 -21.181376 -7.382914 -13.139840 1.728762 11.074376 32.330925 1.355591 1.475272 2.016488 2.226200 -9.322200 -26.808400 28.985004 4.234152 -4.862008 -1.147972 -7.916390 24.982019 1.227126 -9.304194 -15.644742 -0.584500 4.895100 -13.609500 0.340630 2.032646 -4.018883 2.057625 1.389318 -5.580541 16.786974 -7.915937 6.969477 9.777100 -3.950100 3.814600 -100.139569 3.829194 -15.766146 26.530698 -36.032019 -9.801336 -3.743866 2.965694 -9.305778 -7.125000 0.000000 0.000000 94.956949 -2.442399 -10.787740 -12.491071 26.730417 -3.878279 1.376437 3.139758 12.011121 7.125000 0.000000 0.000000 
28.092221 17.612875 -1.674292 4.684943 -81.375438 1.430716 -21.082364 -7.453796 -13.177099 1.725560 11.069489 32.313772 1.390265 1.398328 2.040567 2.239500 -9.348000 -26.890200 29.062775 4.127900 -4.910865 -1.138055 -7.902163 24.930523 1.232920 -9.318207 -15.625027 -0.594500 4.936200 -13.726600 0.334081 2.033787 -4.036546 1.924673 1.369532 -5.616896 16.464898 -7.463436 7.023795 9.557900 -3.714000 3.725100 -100.209528 3.992329 -14.750935 26.115694 -35.738391 -9.465267 -3.438919 3.134936 -6.931314 -7.125000 0.000000 0.000000 94.971047 -2.471765 -10.486385 -12.677235 26.954854 -3.918987 1.395400 3.126229 11.577307 7.125000 0.000000 0.000000 
